<?xml version="1.0" encoding="UTF-8"?>
<svg xmlns="http://www.w3.org/2000/svg" version="1.1" viewBox="0 0 1299 872">
  <!-- Generator: Adobe Illustrator 30.4.0, SVG Export Plug-In . SVG Version: 2.1.4 Build 226)  -->
  <defs>
    <style>
      .st0 {
        fill: #fff;
      }

      .st1 {
        display: none;
      }
    </style>
  </defs>
  <g id="Layer_2" class="st1">
    <rect class="st0" width="1299" height="872"/>
  </g>
  <g id="Layer_1">
    <path class="st0" d="M270.05,627.42l-12.23-.21.02,33.8c0,10.59,8.83,11.03,11.62,13.07.62.45.2,2.5-.12,3.62l-56.22-.06c-.29-2.87.64-4.32,2.72-4.82,4.42-1.06,8.76-5.13,8.76-10.33v-91.97c0-10.52-11.04-12.11-11.06-12.72l-.19-3.98,76.6.28c11.19.04,22.23,3.33,30.77,10.25,15.06,12.2,15.41,35.71,1.68,48.93-5.26,5.07-11.46,7.43-18.86,9.96l26.53,39.6c3.58,5.35,8.41,8.97,14.83,10.62l.11,4.23-44.73.06-30.24-50.31ZM292.06,607.6c6.72-9.66,7.05-21.28,1.37-31.04-4.1-5.27-10.43-8.66-17.39-8.68l-18.22-.04.03,46.91,18.78-.31c5.64-.09,11.07-3.05,15.44-6.84Z"/>
    <path class="st0" d="M908.53,677.17c-18.05,5.23-36.22,4.62-53.61-.94-25.19-8.06-41.43-29.86-42.93-56.17-1.74-30.31,16.35-56.93,45.44-65.7,17.44-5.26,35.49-5.23,52.89.21,29.03,9.07,46.49,36.24,43.92,66.47-2.28,26.87-19.3,48.47-45.72,56.13ZM913.31,585.97c-5.2-13.72-16.96-21.75-30.51-21.52s-24.97,8.14-30.01,21.61c-7.27,19.41-7.22,41.94.86,61.02,5.42,12.8,16.92,19.95,29.84,19.9,35.13-.14,41.52-50.14,29.82-81.02Z"/>
    <path class="st0" d="M108.81,660.55c0,6.48,4.14,10.22,9.35,12.33l2.59,1.05c.77.31.27,3.08-.05,3.76l-56.8-.06c-2.42-6.37,11.43-3.59,11.43-16.71l-.02-89.86c0-14.05-15.43-10.58-10.53-17.32l73.19.06c23.49,1.44,42.99,12.18,43.81,36.29.51,15.04-6.97,27.8-20.76,34.11-7.4,3.39-15.55,5.93-24,5.74l-28.23-.66.02,31.28ZM145.97,601.56c2.17-7.49,1.42-14.7-.93-21.56-3.44-6.61-9.35-11.72-17.21-11.86l-19.11-.35.03,49.13,17.97-.28c9.08-.14,16.66-6.18,19.24-15.09Z"/>
    <path class="st0" d="M445.17,620.53l-23.29-.28.05,42.87,41.09-.05c10.82-.01,19.6-6.43,23.71-16.35,1.14-2.74,3.23-4.76,6.24-3.64l-3.59,34.58h-111.9s-.65-3.07-.65-3.07c-.24-1.12,11.7-2.71,11.7-13.08l.02-90.99c0-12.51-13.97-10.06-11.63-16.72h109.6s.47,32.22.47,32.22c-.74.39-3.76.74-4.11-.05l-1.52-3.37c-3.43-7.61-9.54-14.24-18.64-14.29l-40.79-.21.05,38.56,22.62-.18c12.02-.09,13.02-13.42,14.19-13.23l3.96.62-.09,40.1h-3.91c-.94-.01-2.75-13.31-13.58-13.44Z"/>
    <path class="st0" d="M624.34,659.89c-14.86,24.1-52.04,24.2-78.52,15.17-10.64-3.63-10.66,3.44-16.52,2.53l-1.05-38.52c6.21-4.12,6.17,7.17,14.55,15.18,12.05,11.51,30.12,15.64,45.65,10.46,5.98-1.99,9.68-7.37,10.44-12.42.94-6.29-2.21-12.62-8.13-15.12l-15.4-6.5-25.11-9.84c-7.87-3.08-14.5-9.24-17.98-16.87-9.08-19.86.36-41.63,20.72-49.14,17.11-6.32,35.22-5.42,52.61.74,10.03,3.55,9.57-2.07,15.61-1.99l.74,34.67c-1.14.14-3.8.13-5.07-.04-6.36-19.93-32.85-28.91-49.77-21.19-5.15,2.35-8.24,7.27-8.21,12.52.03,4.92,3.55,9.92,8.81,11.9l23.16,8.74,19.51,8.48c17.61,7.65,25.35,32.8,13.98,51.24Z"/>
    <path class="st0" d="M724.32,664.17c16.17,4.91,33.18.61,45.18-10.69,7.17-6.74,6.87-15.45,13.08-12.25l-3.22,35.02c-3.95,3.05-5.46-5.77-12.08-3.04-22.42,9.24-47.05,10.11-69.52,1.19-21.98-8.72-35.65-28.03-37.9-51.29-3.15-32.6,16.52-60.94,48.11-69.41,18.8-5.04,38.14-4.04,56.8,2.61,9.36,3.33,10.57-4,15.93-2.41l.29,38.17-4.85-.2c-3.91-12.93-13.77-21.84-26.79-25.32-12.59-3.37-26.47-2.34-36.96,5.9-18.75,14.73-21.36,49.44-10.74,71.83,4.53,9.55,12,16.66,22.65,19.9Z"/>
    <path class="st0" d="M1052.45,661.51c.01,11.98,14.7,9.84,11.89,16.15h-57.45c-.05-1.6-.2-3.54.38-3.76l2.61-1c5.15-1.96,9.33-5.82,9.34-11.99l.03-92.45c-20.86-.5-27.33-1.3-35.62,16.12l-1.55,3.26c-.36.76-3.34.26-3.84-.02l.04-34.03,115.27-.03.09,34.21-4.33-.09c-3.63-10.47-9.62-19.5-20.26-19.5h-16.72s.1,93.13.1,93.13Z"/>
    <path class="st0" d="M1207.01,677.66l-56.67.02-.64-3.09c-.27-1.31,12.39-2.27,12.39-13.7l.02-92.4-14.08-.18c-17.7-.23-19.91,15.04-23.05,19.48-.48.68-3.06.33-3.88.06l.05-34.06,115.46-.02-.03,34.49c-1.82.03-4.06,0-4.36-.77l-1.34-3.44c-3.09-7.96-9.05-15.44-18.12-15.5l-17.4-.12.06,92.27c0,13.79,14.83,10.53,11.58,16.97Z"/>
    <path class="st0" d="M269.76,738.56c6.11,2.15,8.31,6.24,7.46,11.96-.58,3.88-4.65,8.81-10.1,8.92l-24.92.51.05-40.99,23.35.36c4.53.07,8.74,4.18,9.42,7.27,1.11,5.03-.17,9.15-5.25,11.96ZM263.42,735.52c1.55-.04,3.88-3.49,3.67-4.99s-2.64-4.27-4.35-4.29l-12.28-.14v9.74s12.97-.32,12.97-.32ZM265.39,752.53c1.83-.07,3.95-4.31,3.58-5.97s-3.11-4.12-5.12-4.14l-13.44-.12-.05,10.78,15.02-.56Z"/>
    <polygon class="st0" points="987.37 759.62 979.75 759.56 958.31 732.65 957.98 759.87 949.91 759.89 949.9 719.01 958.18 718.93 979.07 745.3 979.39 719.05 987.31 719.06 987.37 759.62"/>
    <path class="st0" d="M340.84,760.24l-9.94-14.25-8.13-.09v13.99s-8.49-.09-8.49-.09l.07-40.86,21.4.21c6.83.07,12.3,4.64,12.99,10.56.76,6.45-1.58,12.51-9.06,14.88l10.54,15.04-9.38.61ZM334.26,738.52c4.08-.13,6.24-3.81,5.79-6.97-.36-2.5-3.08-5.37-6.06-5.37h-11.27s.08,12.71.08,12.71l11.47-.36Z"/>
    <path class="st0" d="M579.11,735.42c2.03,12.8-6.12,24.1-18.61,24.19l-20.08.16.06-40.75,20.35.31c9.15.14,16.82,6.88,18.28,16.09ZM561.39,752c7.27-1.83,9.98-8.93,9.01-14.95-.94-5.87-5.81-10.62-12.51-10.79l-9.05-.22-.09,26.64c3.7.22,8.47.37,12.64-.69Z"/>
    <path class="st0" d="M428.5,739.49c0,12-9.73,21.73-21.73,21.73s-21.73-9.73-21.73-21.73,9.73-21.73,21.73-21.73,21.73,9.73,21.73,21.73ZM420.41,739.46c0-7.53-6.1-13.63-13.63-13.63s-13.63,6.1-13.63,13.63,6.1,13.63,13.63,13.63,13.63-6.1,13.63-13.63Z"/>
    <path class="st0" d="M1056.48,743.7l-9.7-.1.06-6.5,17.39.02.15,17.24c-5.54,4.35-12.59,6.82-19.76,6.24-8.94-.73-16.29-6.12-18.98-13.88-2.91-8.39-.84-17.94,6.49-23.54,9.17-7,22.1-6.51,30.97.9l-4.7,6c-6.24-5.36-16.25-6.43-21.85.3-4.25,5.1-4.03,11.89-1.08,16.77,5.33,8.81,18.58,6.18,20.26,3.68.73-1.08.71-4.01.73-7.11Z"/>
    <path class="st0" d="M491.59,750.49l-18.77.2-3.76,9.22-8.66-.21,17.73-40.57,8.81-.03,17.48,40.43-9.13.41-3.68-9.45ZM488.59,743.53l-6.36-15.15-6.55,15.4,12.91-.25Z"/>
    <path class="st0" d="M716.8,750.75l-18.95-.14-3.94,9.23h-8.72s17.94-40.73,17.94-40.73l8.63.05,17.57,40.41-9.14.38-3.39-9.2ZM713.56,743.56l-6.33-14.98-6.56,15.17,12.89-.19Z"/>
    <path class="st0" d="M788.08,758.68c-9.08,4.05-18.79,1.49-26.14-4.46l4.3-5.83c7.88,6.73,19.09,6.66,20.4.92.32-1.39-1.74-4.29-3.14-4.68l-10.24-2.84c-5.69-1.58-9.46-4.94-9.71-10.35s2.51-10.13,8.08-11.93c7.39-2.39,15.08-1.15,21.9,3.66l-3.77,5.87c-7.17-4.21-15.63-5.48-17.8-.27-.51,1.23,1.15,4.32,2.56,4.73l10.8,3.13c5.08,1.47,8.72,4.52,9.38,9.23.7,5-1.17,10.38-6.62,12.81Z"/>
    <path class="st0" d="M623.24,738.66c-.36,6.47,3.3,11.71,8.13,13.57,6.04,2.34,11.86.38,16.23-4.42l5.37,5.59c-8.46,9.28-23.92,9.98-33.07.65-7.86-8.01-7.51-21.91.53-29.53,9.12-8.65,22.87-8.23,32.64-.07l-5.74,6.19c-4.83-4.4-9.46-6.03-15.2-4.23-4.5,1.41-8.55,5.94-8.89,12.24Z"/>
    <rect class="st0" x="78" y="732.61" width="114.08" height="6.47"/>
    <rect class="st0" x="1149.86" y="680.89" width="6.46" height="109.93" transform="translate(416.6983 1888.5985) rotate(-89.9732)"/>
    <polygon class="st0" points="850.37 759.72 841.87 759.84 841.86 726.12 828.96 726.16 829.09 719 863.07 718.98 863.19 726.15 850.35 726.16 850.37 759.72"/>
    <rect class="st0" x="901.54" y="719" width="8.6" height="40.87"/>
    <path class="st0" d="M549.97,475.66l9.05-22.54c2.65-6.61,8.33-10.37,15.31-10.4l1.9-11.51,1.62-6.13c.97-3.68,5.93-10.01,10.26-10.49,4.4-.48,10.26.91,14.16-.03l6.77-6.63c6.42-6.28-4.65-22.28-2.89-29.65l2.02-8.47c2.46-10.28-3.17-17.08-3.23-22.41,0-.66-2.15-.38-3.09-.13l1.78,14.02c.66,5.18,3.22,9.31,1.89,15.32l-4.42-18.05-.69-2.33c-.15-.5-2.67.97-3.24.8-9.38-2.85-14.19-9.72-21.9-13.05-4.65,14.48.63,17.46.33,20.08-.09.79-.41,3.3.22,3.32l3.62.14c3.53,4.02,1.85,11.36-1.79,14.2-4.77-2.75-6.87-7.43-8.98-11.49-1.88-3.62-3.83-5.8-2.83-10.2,3.02-13.33-1.21-22,3.06-25.73,1.73-1.51,5.32-1.72,7.68-1.02l12.13,3.58.42-13.86c.18-5.79,9.81-8.01,4.97-18.1-4.44-9.28-1.76-19.97-11.91-31.86l-6.98-1.61c-1.48-2.26-2.33-8.4-.62-10.51,5.73-4.72,9.77-10.01,10.78-17.37,5.26-1.12,6.32-4.01,6.48-10.31l4.16,3.47,3.58-.92c.75-.19,1.43,1.58,2.2,3.1l4.09-4.03,2.5-.65c1.79-.47-2.11,5.51-1.3,6.15l3.28,2.6c2.16,1.71,4.31,1.6,7.84.99l-2.12,2.9c-.39.53,1.84,1.4,2.23,2.07l5.12,8.65c2.27,3.83,4.8,7.13,7.9,10.42-1.32,1.23-2.92,2.6-3.01,3.67-.37,4.5,6.75.54,13.18,1.99l5.44-8.61c.89-1.4,4.6-3.4,5.73-4.16-1.78-2.93-2.67-5.64-3.24-9.97l-6.33-3.08c-1.2-.58-2.25-3.77-1.84-5.04.41-1.26,3.24-2.63,4.6-2.78,12.94-1.4,20.75,3,20.75,3-2.07-3.05-6.78-5.41-15.23-4.96.25-1.13,1.07-2.31,1.96-3.67,1.87-2.85,10.31-2.09,12.95,1.17.92,1.13,1.05,4.62,1.07,6.71l7.51,2.87c1.12.43,2.6,3.28,2.46,4.46-.16,1.38-2.84,3.18-4.23,3.36l-7.41.98,7.26,5.33c2.87,2.11,8.24,4.6,9.3,8.32l4.27,15.02c1.72,6.06,3.12,11.49-.83,17.32-1.47,2.16-4.59,3.54-7.71,3.62.8,4.04.61,8.85-1.61,12.27l4.03-.7c.77-.13,1.86,1.94,2.05,2.99.51,2.81-1.49,5.93-3.09,7.42,1.13,2.13,2.21,4.66,2.58,6.71,5.29,2.09,12.14,4.13,16.8,8.1,6,5.1,8.62,12.64,12.35,19.55,7.91-.47,14.12,3.61,16.23,10.99,2.83,9.89.81,19.63-3.49,29.01-2.16,4.71-2.51,11.57-1.01,16.28l1.37,4.3c.37,1.16-1.86,3.24-3.27,4.1l-6.24-8.25-2.72,1.93-2.89-11.89,3.24-4.61-.73-.67-3.04,4.68c-1.78-4.35-1.84-8.81-.23-13.16l4.36-11.86c1.24-3.37.44-9.21-1.27-13.17-.85,12.34-7.14,21.11-18.9,25.18-4.77,8.13,3.34,12.58,4.26,18.03.25,1.46-1.43,4.36-2.91,5.13l-18.53,9.57c-2.32,1.2-4.33,5.81-5.46,8.12,4.7,2.16,6.63,5.49,6.38,10.74,12.36,1.48,24.8,3.16,36.87,6.56l7,6.05c5.31,4.59,6.88,11.43,8.48,17.76l4.48,17.69c1.68,6.64,2.53,13.54,2.33,20.42l26.6,1.57,43.02,3.21,64.05,3.66,13.09,1.64-93.06.31-50.1.48-19.64.17-169.89-.17-154.94-.7-.53-.77,19.94-.49,12.2-.66,89.2-5.68,32.45-2.36c-1.05-9.14,3.71-14.92,1.68-25.62-.64-3.38-.89-8.15.54-11.71ZM589.5,246.72l7.5-1.33c-1.22-1.5-5.97-1.82-7.54-.21l-2.88,7.17,5.34-2.59-2.43-3.04ZM643.3,303.45l4.23-5.85,2.96-4.1,3.74,4.55c3.56-3.67,7.24-2.24,12.06-.02l-3.29-4.98,8.55-.56,8.88-2.59-4.57-2.47c-.24-.13-3.43-10.78-2.36-17.44-.95.5-2.85,4.2-2.53,5.85l2.28,11.68-9.81,2.52c-.65.17-2.55-2.8-2.8-2.18s-1.46,2.66-2.11,2.82l-9.24,2.32-1.41-11.52c-2.42,1.57-5.16,3.09-6.7,2.61l-7.45-2.32,6.32,16.22,3.26,5.45ZM596.13,274.03l-8.29-2.26c1.09,4.05,2.62,5.76,6.71,7.42l1.58-5.16ZM633.18,278.3l-33.6-5.99c10.81,4.19,22.37,6.79,33.6,5.99ZM624.33,354.03l12.7-23.22c-.29-.47-.5-4.17.28-3.94l3.83,1.16-2.83-3.2c-3.6-4.07,4.74-3.41,12.29-7.98l10.72-6.49c-3.28-3.86-7.96-3.96-12.13-1.21l-15.03,9.93-7.14,25.94c-1.92,6.98-8.48-.48-10.52,3.95-.86,1.87-.32,4.17,1.03,5.22l.53-4.08,6.26,3.91ZM603.93,327.72c-.61-5.31,3.43-5.84,6.28-7.57l10.99-6.68c-11.29-1.67-22.31,7.08-22.55,18.47-.07,3.2,4.13,5.87,6.24,4.07l-.95-8.29ZM671.29,338.68c-4.12-.68-10.61-5.94-21.92-7.14,1.22-2.05,3.79-3.85,6.35-4.8l12.47-4.65-.29-2.04-14.36,5.57c-2.37.92-5.33,4.17-6.76,6.47l19.43,8.61,9.41,3.3c1.12-6.11,1.4-10.34.97-15.99-3.58,2.73-2.78,11.1-5.29,10.68ZM595.12,337.27c1.96-4.5,2.75-9.17-.36-13.72l.36,13.72ZM661.42,405.85l-7.99-13.22c-3.39-5.61-3.41-11.55-.29-17.61l-7.05-1.91-.56,7.13c-.23,2.85-4.11,4.39-7.15,5.36-4.1,1.3-9.53,5.51-13.8,2.69-5.83-3.85,2.51-13.18,4.68-20.4l-9.4-5.79-2.53,15.05.79,8.76c-.94,5.96-.26,11.03.15,16.9l.62,8.73.78,5.53c4.27.9,7.81,2.34,11.67,4.57l5.68,1.98,17.56-11.15c2.38-1.51,5.82-3.79,6.87-6.61ZM711.08,396.21l5.15-9.05c2.49-4.36,3.33-9.71,2.42-14.19-.4,10.57-7.55,16.11-7.57,23.24ZM658.26,430.01c6.33-8.55,18.15-10.63,24.14-20.99l-8.88-15.29c-4.38,8.97,3.87,13.86.06,20.5-9.84,2.92-18.34,5.69-25.97,12.58l10.66,3.2ZM594.84,422.84c5.18.7,8.49-.67,10.82-5.69-6.06.73-12.7.73-18.13,6.02l7.31-.33ZM578.47,441.64c6.01,1.27,8.51-3.44,10.99-7.19l5.92-8.95c-13.17-.44-7.99,7.31-16.91,16.14Z"/>
    <path class="st0" d="M982.71,521.91c-17.67,2.03-34.94,1.41-52.4.75l-24.33-.92-18.06-2.55-87.92-5.43-16.11-1.51,85.77-.43-.28-9.64-123.26-.25c-1.02-2.03-1.41-4.47-1.3-6.57l55.68-.11,47.45,1.72,13.02.66.99-5.49c-14.36.08-27.65.46-42.14-1.57,11-2.25,21.33-2.12,33.12-1.83l.45-7.63-112.09.21-1.3-5.24,11.07-.98,95.59.08-.13-13.67h-110.46s-3.71-4.97-3.71-4.97l4.48-1.1.44-31.41-.07-22.08,1.15-23.2c.4-8.06-2.18-15.75-7.37-21.83-3.02-3.55-8.8-5.32-12.7-7.17l-9.22-14.08-.68-37.65-.67-36.82-6.14-4.1,6.55-.45c3.83-.26,6.39-4.81,5.73-8.35l-26.73-.07-.19-4.4,151.02-.09.17-10.49-.2-19.23-388.74.04.42,8.36.39,21.33,121.94.07-2.14,4.38-26.13.2c1.45,4.6,3.28,6.86,6.64,10.04l.02,189.32c-2.85,4.41-4.33,8.15-5.63,13.73l-104.19-.03-.27,13.56,68.18.28,31.23.2-.89,5.73-104.62-.12.09,7.28,64.55.68c1.46.02,5.04,1.17,6.29,1.58l-23.05,1.08-55.91.35.06,5.07,36.24-.9,51.38-.81,25.88-.2-1.96,6.57-120.61.41.41,10.12,86.59-.14-15.1,1.61-65.96,4.18c-9.47.6-19.05-.18-27.98,2.18-4.31,1.14-8.32,3.11-13.1,3.07l-78.13-.73c11.64-4.48,23.14-3.34,34.73-4.09l57.36-3.73,15-1.01.65-15.04,8.47-.94-.09-5.61-44.08-.81c.21,5.07-.39,8.04-1.25,11.98l-1.9,8.7-47.94,2.7-13.96,1.37-170.68.07-19.69-.92.19-1.9,68.98-2.31c.91-3.99,3.3-6.07,6.7-6.58,3.38-4.22,8.27-5.04,12.57-1.82,2.76-.77,4.8-2.95,6.53-5.37,1.44-1.77,6.05-3.64,8.74-4.13,1.63-.3,4.7,2.78,6.29,3.21l7.01,1.9c3.27-1.89,7.39-3.69,12.05-4.84,1.17-13.47,1.66-27.12.81-40.73-.59-9.5-8.99-22.53-18.37-23.89l1.02,3.94c.25.95-1.54,2.76-2.48,2.52l-4.02-1.05c-.41,1.64-1.2,3.98-2.12,4.67-.92.69-3.11-1.45-3.84-2.65l-3.87,3.38c-1.25-.16-3.79-2.76-4.1-4.17-.43-1.95,1.18-4.37,3.21-5.55l1.99-4.91c-6.44-1.73-9.48,6.01-11.08,4.12l-2.85-3.36c-1.02,2.37-4.39,4.79-6.47,4.19-.87-.25-2.35-2.63-1.86-3.31l2.41-3.35-6.87-.34c-.75-.73-1.68-3.3-1.01-4.08,2.65-3.12,5.64-1.16,7.53-2.77l-1.92-4.52c-.4-.94,3.18-1.82,4.13-1.45l6.01,2.36-1.63-4.25c-1.13-2.96,6.82.96,9.06-1.71l-3.64-4.48c-1.5,1.77-2.32,2.79-3.14,3.42-1.94,1.49-5.84-4.53-6.01-4.27l-1.84,2.73c-.57.85-2.26,2.34-3.23,2.66-1.17.38-2.93-2.49-2.97-3.19-1.69,1.12-4.6,1.95-6.01.94-1.62-1.16-1.27-3.81.57-5.29.89-.71,1.88-2.54,1.67-3.43-.74-3.25-5.35.83-9.63-.78-1.16-.44-2.21-3.23-2.03-4.71l9.61-3.42c.45.02,2.33-.19,2.36-.17.03.02-.83-1.19-1.17-1.5l-5.11-4.76c-.99-.92-2.14-2.67-2.41-3.72-.31-1.22,3.57-3.35,4.53-2.54l6.13,5.19,1-7.74c2.18.09,4.91,1.12,6.26,2.24,4.1,3.42-.06,10.11,5.22,9.71.49-2.31,1.63-4.61,2.95-4.74,2.12-.21,3.76,1.93,4.11,3.87l.56,3.09c.14.79,2.92.24,3.51-.32,1.46-1.39-.8-5.91-2.95-7.33l6.82-4.08c.58-.35.07-3.83-.55-3.56l-2.75,1.22-5.84,1.11c-.96.18-3.12-.02-3.98-.31-.87-.29-1.76-2.66-1.08-3.27l3.36-2.98c.65-.58-1.4-2.47-2.17-2l-3.4,2.09c-.64.4-2.4.96-3.16,1.03-.76.07-2.52-1.8-2.12-2.45l2.22-3.6-4.72-2.09c-1.07-.47-.75-4.13.03-5,2.7-3.05,4.27-.13,9.91-1.05l1.44-.24c.34-.06.04-1.03-.19-1.27l-3.72-3.98c-.39-.42-2.37-.68-2.93-.87-1.68-.56.77-4.86-.18-4.88l-2.64-.08c-1.52-.04-3.34-.37-4.36-.97-1.02-.6-.92-4.66.23-4.56l6.18.53-1.07-3.43c-.24-.77.93-2.24,1.71-2.43,5.27-1.25,3.11,3.87,6.35,8.45l2.19-4.47c.42-.85,3.36-.44,3.7.38l.57,8.6c1.76.09,3.31-2.73,3.74-4.5.23-.98,3.32-1.85,3.86-1l2.24,3.55-.99,6.47,2.68-1.98c1.23-.91,5.14,3.13,5.53.83.6-3.59-5.2-4.86-5.16-9.73l6.87.19-4.16-2.12c-.83-.43-1.42-2.98-1.65-3.55-2.74,1.44-5.81,2.52-7.77,1.88-.55-.18-2.31-2.04-1.91-2.45l2.33-2.42c.25-.26.72-1.02.87-1.35.15-.33-.01-1.65-.34-1.5l-2.61,1.11c-.86.37-3.13.58-4.06.4-1.11-.22-.4-3.4-.48-4.48l-2.69-3.87c-.76-1.1,2.68-3.63,4.13-3.82,2.57-.34,4.2.14,8.2,2.06l.69-6.8-4.32-.87c-1.05-.21-.76-3.51-.69-4.48-1.82-.1-5.57-.37-6.69-1.45-1.23-1.18,1.59-4.61,2.8-4.79l1.43-2.79c.34-.66,2.51.82,2.84,1.48l.9,1.79c.24.48,1.64-.02,2.16-.2l2.4-.86c.65-.23,1.08,1.56,1.36,2.29l2.16,5.56c.77-2.14,1.32-4.39,2.12-5.19l7.09-7.11,2.52,6.17,4.55-4.42-7.08-3.64c1.26-2.82,2.43-3.48,5.92-3.56l.67-5.83c-4.07-.25-8.21,4.71-8.63,1.61-.14-1,.27-2.8.68-4.12l1.17-3.82c.31-1,3.31-.63,4.45-.21,3.98,1.74-2.45-8.27,2.62-10.01,3.72-1.28,6.7,3.33,6.04,6.48,1.8-.28,3.56-.57,4.74-.46,1.18.11,3.09,3.38,2.3,4.25l-3.25,3.56,3.73,4.88,3.41-6.86c.41-.64,3.5-.02,3.46.79l-.18,3.68c-.08,1.57.23,3.55.81,4.16l3.64-7.67c.27-.58,3.14-.59,3.38,0l1.28,3.16c1.54.29,3.71.78,4.25,1.92.73,1.52-.99,4.42-1.74,5.71l-.96,1.64c-.48.82,5.93-1.15,6.95,1.92.49,1.48-1.48,3.88-3,4.45l-5.4,2.01c2.94,2.01,4.12,2.65,5.26,4.05.99,1.23-.82,4.71-2.09,5.66l-4.27,3.17,4.15,5.32c1.1-2.07,1.73-3.78,2.73-4.45,1-.67,3.77-.65,5.69-.75l-1.56-5.06c-.33-1.09,1.72-4.05,2.82-3.73,1.1.32,2.38,1.84,3.29,3l2.24-6.74,6.17,4.17-4.12,12.03c3.26.72,7.67-4.21,9.73-2.06l4.61,2.63-.36-17.17-.48-58.67-.03-9.03c-4.52-5.8-10.48-11.59-14.61-17.76-1.91-2.85-2.57-7.46-5.22-10.05-2.17-2.12-3-4.4-2.62-7.59l41.87-.14-.12-21.15c-.79-1.46-1.53-3.22-1.81-4.81l149.03.02-.33-6.57-25.86.61-23.7-.05-101.45-.24c-.77-1.77-.57-3.79.7-5.68l150.4.16-.13-24.52c-1.93-3.25-4.14-6.79-4.71-10.88h356.51s-5.33,11.49-5.33,11.49v23.85s11.97.33,11.97.33l9.99-.38,127.99-.07,1.4,3.81c.38,1.04-3.06,1.93-4.55,1.93l-146.25-.06-.18,6.27,148.56-.06-2.97,5.51.41,20.5,41.83.18c1.46,6.62-6.33,10.1-7.69,18.64l-15.06,16.89c2.07,3.51-.02,6.02-.03,8.78l-.44,109.39c-3.35-.31-4.94-3.27-4.95-6.59l-.21-104.59h-133.95s.09,3.86.09,3.86c.02.64,2.2.61,3.45.68,1.46,3.49.18,7.95-1.8,11.62l-3.51,6.5.74,30.09.63,151.15,4.55,8.39c.31.57-.5,3.73.13,3.78l4.78.39.16,20.02,5.96.08v12.85s25.57-1.29,25.57-1.29c.53-6.57,5.58-14.44,10.13-17.08.74-.43,2.25.67,3.83,1.65l6.72-5.46c3.98-3.23,9.32-2.69,12.06,1.1,4.5-2.03,6.63-1.1,9.53,2.99l6.59-1.58c-.5-2.21-.87-4.91.24-6.04,1.49-1.52,5.6-1.06,7.32-.5l5.66-4.97c1.09-.96,4.22-2.03,5.56-1.74,1.52.33,3.82,2.3,5.41,3.04,3.08,1.43,5.5,2.48,7.41,4.84.62.77,2.71,2.46,3.45,2l3.14-1.94c5.74-3.55,12.22-1.9,15.95,3.56l3.78,5.54c4.49-3.57,10.32-5.44,14.62-2.02l4.61,3.67c1.27,1.01,2.02,3.68,2.19,5.38,1.68.57,4.59,1.49,5.28,2.74,1.03,1.88-.68,4.72-2.77,6.13-.69,1.45,2.46,4.9,4.17,4.56l7.93-1.56c1.29-11.54,2.51-24.41,1.06-36.54-.88-7.36-8.68-19.03-14.04-20.2-.83-.18-2.24,1.17-2.06,2.04l.83,4.16c.2,1-2.63,2.1-3.5,1.57-3.01-1.82-3.7-5.52-4.14-3.79l-.55,2.14c-.28,1.09-1.17,3.02-1.87,3.77-.84.91-4.17-.6-4.35-1.82l-.48-3.13c-.09-.57-2.18.63-2.7.84l-4.22,1.65c-1.19.47-4.34-2.29-3.62-3.36l4.04-6.03,6.23-.98-1.91-2.09c-.46-.51.86-1.42,2.33-2.29,1.24-.65-.23-1.91-1.28-1.13l-6.15-2.29-1.07,4.17c-.28,1.11-3.94-.05-4.74-.19l-2.26,3.77c-.63,1.05-4.08-.38-4.97-1.45-1.98-2.4-6.89,1.41-8.19-2.15-1.81-4.94,5.54-3.93,11.6-11.68-2.29-1.6-3.98-1.77-6.3-.3-3.74,2.37-6.13-3.77-6.59-3.4l-1.35,1.11-3.19,2.62c-.88.72-4.13-.48-4.52-1.65-.44-1.31,1.27-3.67,2.69-5.6l-7.67-1.09c-1.39-.2-3.23-2.87-2.67-3.93.67-1.29,3.4-3.09,4.8-2.92l2.78.33c.4.05,1.01-1.29.7-1.55l-2.1-1.78c-.97-.82-2.58-3.01-2.13-4.16.44-1.14,3.55-1.9,4.71-1.4l4.86,2.07.94-3.34c.99-3.52,5.27,2.26,7.16.46.82-.78,1.01-3.09.3-3.82-1.39-1.43-2.8-2.13-3.86-1.66-1.56.69-5.19.15-5.14-1.1.05-1.25.89-3.04,1.75-5.21,1.24-3.15-7.03,1.29-9.29-1.25-.7-.79-.72-3.36-.06-4.24.77-1.01,2.96-.75,5.17-.17l1.24-2.21c1.13-2.01-7.52-3.11-7.38-5.79.1-1.93,2.31-5.46,3.78-6.87l10.91.77c-.31-1.77-1.2-5.16-2.47-5.97l-3.65-2.34c-.99-.63-.86-3.46.02-4.25,2.35-2.12,7.68-.97,6.09-2.59l-2.01-2.04c-2-2.03,1.2-7.9,4.74-6.99,2.19.56,3.56,4.92,3.44,7.22l3.79-.87,5.63-1.85c1.58,1.69,1.39,5.63.3,8.85l7.29-1.53,3.07,4.88c.92-.82,2.22-2.13,2.66-2.91,1.65-2.89-7.56-4.99-8.09-10.45-.36-3.66,8.87,0,7.16-6.47-3.36.66-7.83.81-10.3-1.96-.6-.68-1.43-3.17-1.4-4.04.04-1.05,2.88-1.61,4.18-2.1l-7.45-5.07c.43-1.98,2.39-6.06,4.05-6.38,3.26-.62,10.5,6.48,9.76,3.4l-.64-2.66-1.19-4.87c-.47-1.49-2.82-4.73-1.81-5.98,1.09-1.36,3.72-2.78,5.89-3.65l1.6,4.82c1.99-.68,4.89-.86,5.72.23,1.13,1.48.44,4.4-.79,6.3.18.44.63,1.57.44,1.08,2.24-.3,4.33-.59,4.72.31l2.16,5.07,2.07-2.99,2.12-2.49c1.11-1.3-5.73-3.08-5.93-7.06-.09-1.8,2.83-3.81,4.65-3.74.41.02,1.74-.95,1.49-1.26-2.22-2.77-6.66-.03-8.19-4.61-.33-.99.49-4.2,1.51-4.02l4.58.81c.8-.7-.57-3.56-1.75-5.16-1.92-2.6,1.87-8.05,5.63-7.17,2.52.6,4.4,4.29,5.9,6.88,1.84-3-1.17-7.59,1.59-9.28.84-.51,3.28.88,3.87,1.68l2.32,3.15c.49.66,2.36-1,3.77-1.92.05.29-.22-1.36-.27-1.71l-2.48-3.65c-.59-.86.9-3.92,1.94-3.72l5.32,1.02c-.92-2.49,1.61-7.29,4.62-6.47,4.29,1.17,1.97,6.2,1.73,10.13-.08,1.31,3.15-1.54,6.61.08,1,.47.09,4.5-.97,4.75l-6.74,1.57,1.28,3.16c.23.56,1.45.5,1.87.13l2.43-2.92c.64-.78,3.12.14,3.91.76.8.62.17,3.78-.78,4.2l-7.2,3.21c-2.17.31-2.17.32.15,0,1.52,1.09,2.32,1.51,2.46,2.16.18.86-.1,3.45-.61,4.16l-1.65,2.33c-.32.45,1.12,1.25,1.68,1.19,3.33-.36.97-2.48,3.67-5.4,1.25-1.35,4.82,3.23,5.05,3.09l2.36-1.45c.56-.34-1.58-2.36-1.67-3.03-.16-1.31,2.41-2.86,3.78-3.15,1.29-.27,4.99.38,4.9,1.68l-.44,6.56c2.8,2.67,6.4-3.7,7.19-2.89l2.57,2.62c.85.86,2.09,3.29,1.74,4.42-.86,2.86-6.02-.13-8.11,1.61-.75.62-1.64,2.61-1.08,3.27.44.53,1.52,1.77,1.19,1.96l-1.59.91-4.93,2.83,5.27,2.54c2.11-1.57,6.12-2.24,8.64-.02,2.16,1.9.34,5.94-1.81,7.33.27.8,1.17,3.43.4,3.58-.96.18-3.5.26-4.43.02l-2.1-.53c-.38-.1-.94,1.43-.61,1.63l2.45,1.51s.38.85.77,1.71c-1.29,1-3.36,2.5-4.56,2.42-1.21-.09-2.97-1.25-4.89-2.44l-4.51,4.7c1.76.19,4.1.29,4.03.92-.1.84-.56,2.85-.94,3.61l-2.63,5.3c-.08.74-.26,2.47.23,2.36,8.68-2.05,4.41-7.91,8.92-10.15.94-.47,3.9.23,3.88,1.26l-.04,2.53c-.01.64,1.7,1.36,2.19,1.43l.85-7.17c.09-.76,1.47-2.45,2.15-2.85.85-.51,2.96,1.06,3.24,2.03l.57,1.98c.53,1.83.92-7.02,4.37-8.09.82-.25,3.34,1.07,3.27,1.91l-.41,4.69c-.04.42-.59,1.79-.26,1.64l1.9-.89c.94-.44,3.08-.92,4.07-.99,1.17-.09,1.95,3.43,1.16,4.42l-7.52,1.7c.4,1.13,1.46,4.49.38,4.78-1.11.3-3.4.43-4.95.46l-2.41,4.08,5.41,1.89,4.78-1.13c1.26-.3,3.14,2.96,2.8,4.23-1.12,4.15-6.13,4.63-5.81,5.1l1.96,2.8c.61.87-1.4,3-2.75,2.97-1.52-.03-2.99-1.47-3.8-3.84.44-.29-1.2-.14-1.19.3l.02,1.98.06,6.48-6.14-1.25-2.01,1.49c-.39.29-1.7-.49-2.06-.84l-1.9-1.88c-.39-.38-2.49,1.16-2.2,1.63l3.33,5.33,2.95-.98c.41-.14.64,1.74.42,2.13l-3.16,5.74c-.25.46,1.89,2.65,2.09,2.17l.94-2.26c.62-1.49,2.24-3.71,3.64-4.04,2.5-.59,4.05,1.66,4.64,4.09,4.87.36-1.24-7.5,7.39-9.9l1.84,5.2c.17.48,1.81,1.01,1.68.53l-.75-2.92-.95-3.69c-.22-.87,2.51-2.35,3.16-1.72l2.57,2.48.3,4.07,2.05-1.53,4.04-2.66c.97-.64,3.5,2.2,3.37,3.35l-6.61,6.93c-.25.27-1.65,1.01-1.98,1.17-2.17,1.03,7,1.3,10.83,4.83.9.83-.83,4.91-2.07,4.88l-5.09-.13c-.73-.02-2.57.44-3.34.7-2.65.89,4.23,4.44,3.24,7.28-.36,1.04-3.24,2.9-4.18,2.31l-4.55-2.83-.4,3.89c-.1.92-3.09.97-3.71.29l-4.96-5.41c-1.39,1.75-3.83,3.68-5.41,3.74l-2.46.09c-3.25.12,3.95,2.14,4.44,4.66l.43,2.23c.18.92,5.89-3.96,11.37-.57l-3.25,4.99,5.14.69c1.38.19,3.45,2.51,3.15,3.83-.43,1.88-3.12,2.76-5.16,2.71l-1.65.17-.21,5.31c-.04,1.09-3.48,1.67-4.18.83l-3.17-3.79-2.72,3.34c-1.89,2.32-4.9-7.02-9.85-4.78l.13,5.14c2.69,1.34,3.9,3.43,3.7,6.08-.16,2.16-4.31,4.88-5.63,3.54l-2.76-2.81-3.38,2.34c-.71.49-2.53-1.82-2.68-2.7l-.47-2.79c-.04-.23-4.77,1.63-4.97.9l-.78-2.92c-.09-.32.19-2.28.3-2.63.15-.49-.97-.11-2.07.22-7.61,5.22-15.71,15.81-15.68,24.37l.11,37.71c.01,4.53,7.04,2.34,11.73,7.7l6.72-1.81c3.37-3.22,6.64-4.75,11.41-2.78,8.51,3.52,6.62,7.89,11.28,8.71,5.05-3.38,9.96-1.4,13.98,2.02,2.22,1.89,4.08,2.89,5.25,6.24l40.05,1.44,30.08,1.03c-.52.84-.9,1.33-1.64,2.21l-65.19.81-119.87-.35-65.53-3.7c-2.48-6.73-4.06-13.35-4.15-21.02l-30.28.3-14.06.63.13,5.44,8.21.19-.27,15.25,35.64,3.23,71.95,5.59ZM451.32,188.18l22.93-.45h339.65c.68-6.42-1.37-11.56-1.32-16.74l.31-36.75c.66-1.94,1.3-4.07,1.35-4.91h-340.28s1.44,5.63,1.44,5.63l-.28,36.2-2.04,13.76c-.15,1.01-3.07,1.12-3.14.09l-.58-8.32-4.99,5.71-13.06,5.78ZM834.81,187.76c-4.66-3-7.21-4.06-11.37-5.37l-5.19-4.53-.44,9.97,17-.06ZM857.31,193.16l-37.55.25-344.55-.03-44.39-.19c2.7,4.84,4.08,7.96,4.67,12.66h416.17c.3-5.07,1.82-7.99,5.64-12.69ZM435.87,212.92c-2.94-3.3-4.57-6.62-5.78-11.53l-95.98-.39-18.08.75-26.91.44c2.23,3.25,3.79,6.61,4.97,10.58l141.78.15ZM994.24,213.08c.92-5.61,2.08-7.46,4.02-11.04l-140.87-.5c-.88,4.93-2.93,7.72-5.66,11.4l142.51.13ZM309,221.85v12.5s136.33.15,136.33.15v-12.5s-136.33-.15-136.33-.15ZM842.76,222l-.02,12.26,135.26.26.02-12.26-135.26-.26ZM297.58,424.2l-7.7,3.5,2.54,2.28c.49.44-.09,2.19-.37,3.54,1.88-.29,4.22-.39,5.5.39,1.45.88,3.45,4.48,2.49,5.62-1.16,1.38-3.73,3.01-4.99,3.41l-6.82-3.76-.61,5.65c-.11,1.04-3.69.38-4.12-.57l-1.43-3.09c-2.76,1.52-5.1,1.75-7.36.04l2.17-5.39c-7.26-1.62-16.68,13.18-17.24,19.53-1.1,12.26.04,24.28,1.46,36.46l9.17.73c1.07.08,4.38-2.3,3.6-3l-3.07-2.76c-1.03-.93-1.03-4.61.28-5.09l5.33-1.97-.02-4.67c0-1.12,3.55-1.75,4.25-2.7,5.47-7.41,13.86,0,16.79.49,1.26.21,1-5.42,6.54-8.78,5.02-3.05,9.51-3.6,14.43,1.55l6.21-6.12c2.39-1.56,7.89-3.13,11.2-3.34s6.52,4.75,8.42,6.46c2.69-.51,6.74-1.12,9.08-.27.75.27,2.18,2.44,1.83,3.15l-1.24,2.52c-.23.47-.53,1.58-.65,2.09-.08.34,1.41.47,1.82.47l7.43.08c.69-.93,2.29-4.04,3.54-4.04l4.71.03c4.21-3.33,11.33-2.45,14.39,2,2.77,4.05,6.88.32,9.88,2.73,1.24,1,2.33,3.53,3.05,5.64l4.05,2.26.09,8.23,27.6.97c-.55-3.12-.81-8.91-.06-11.42.37-1.23,3.96-1.46,5.72-1.18l.13-19.18,4.37-1.64c.3-4.4,1.26-7.85,4.62-10.93l.4-119.06.7-64.74c-3.3-4.46-6.89-10.62-4.4-16.01l3.45-1.17c.58-.2.38-2.38.36-3.75h-134.83s.03,88.63.03,88.63c0,1.83-2.57,3.88-4.48,4.49l-2.08-1.98-6.7-5.12,4.1,3.02c-2.88,8.86-11.41,3.44-12.18,6.14-.17.59.06,2.26.68,2.28l2.67.08c1.06.03,3.37.71,3.69,1.69s-.39,3.45-1.11,4.2l-4.49,4.72c-.61.43-2.39,1.09-2.15,1.73.18.49.94,1.9,1.39,1.65l2.38-1.34c1.49-.84,4.89-.47,7.5.08-.51-1.24-.21-5.66,1.47-6.71,1.02-.64,4.1,1.06,5.32,1.93.39-.12,1.51-1.38,1.19-1.94l-1.34-2.31c-.37-.64,1.89-2.06,2.32-1.46l1.96,2.7c.25.34,1.04,1.4,1.12,1.03l.47-2.16c.28-1.27,1.62-3.87,2.79-4.42,3.08-1.44,7.2,4.66,6.17,6.02l-2.81,3.7s.53.21,2.09.83c1.12-.03,4.05,2.2,3.82,3.52-.52,2.98-4.03,3.4-6.45,6.62-.62.83.46,3.36.74,3.89,1.06-.87,2.29-2.06,2.89-1.75l2.56,1.3,4.32-1.25c1.16-.34,5.32,6.86,2.72,8.87l-4.44,3.42c-.51.39-1.95,1.66-1.38,1.82l2.12.62c1.1.32,3.17,1.6,3.69,2.57.43.81-1.05,2.92-1.94,3.13s-2.33-.35-3.9-1.04c-1.26-.55-4.36,2.19-3.45,3.23,1.6,1.84,2.31,3.13,1.71,4.08-2.13,3.4-6.26-1.74-8.92,2.13-.85,1.24.87,4.28,2.07,3.86,1.74-.61,4.93-1.83,5.48-.77l2.11,4.06c2.1-2.8,6.24-3.2,7.95-1.75.66.56,1.69,2.62,1.2,3l-2.14,1.64-2.02,1.54c-3.12,2.39,7.05,1.52,7.69,4.38.76,3.39-2.62,5.61-5.26,5.59h-3.2c-1.07-.02,2.77,5.54-.02,7.15-.94.54-3.28.04-4.22-.52l-3.31-1.97c-1.31,1.53-2.29,3.02-3.29,2.99-2.74-.07-6.13-3.23-7.6-2.1l-2.8,2.16,6.77,5.87,4.6,1.99c.52,1.1-.72,5.3-2.14,5.3h-4.94c-1.14,0-3.94,2.67-4.64,1.76l-3-3.97c-.57.23-4.43,1.55-4.77.39l-1.32-4.48ZM480.41,451.33l-4.64-8.32-.48-79.23-.91-75.15-.48-28.02-10.88-3.42c4.64-3.13,7.72-.56,12.23-.62,2.56-.04,5.01-4.6,4.73-8.23l-34.16.06c.08,3.81,3.13,7.67,5.75,7.56,4.44-.18,6.4-.74,10.88,1.13l-10.65,3.26-1.09,127.31-.4,55.46c-.02,2.37-3.42,6.3-4.86,8.15l-.21,4.48h35.8c.04-.78-.14-3.56-.63-4.43ZM501.35,455.77l36.81-.03c-.43-3.28-1.09-4.73-2.2-6.51l-4.01-6.46-1.23-177.66c-.02-3.15-.98-5.05-2.85-6.79,4.49.17,9.24-5.73,8.79-10.05l-34.94.07c1.23,3.9,3.08,6.87,4.76,8.73l6.52.31-4.61,3.42-.6,54.77-.25,10.07-.73,70.32-.37,47.06-3.83,6.78c-.91,1.6-1.64,4.19-1.25,5.95ZM787.74,455.52l-6.87-12.58-.54-78.47-1.14-104.01-3.84-2.98c3.45-.64,6.1-.79,7.2-2.11,1.46-1.73,2.09-3.71,2.58-6.97l-34.25-.06c.42,6.24,4.59,9.8,9.17,9.95l-3.56,3.28-.78,74.01-.54,101.35c-.07,13.44-5.87,12.53-5,18.87l37.58-.29ZM841.95,455.74c-.18-3.23-.74-4.87-1.77-6.72l-3.42-6.15-.35-94.45-.81-87.76-11.06-3.75c5.04-1.31,7.15-1.05,11.75-1.08,3.12-.02,6.01-4.73,4.99-7.51l-34.06.04c-.28,2.87,2.07,7.31,4.4,8.07,4.45-.19,7.69-1.82,12.56.68l-11.05,3.28-.48,39.33-1.01,88-.49,56.11-3.22,5.33c-1.18,1.95-1.85,4.19-1.88,6.6l35.88-.03ZM233.83,308.4l-4.25-1.99c-.99-.47-3.24,2.15-2.63,3.06s2.28,2.58,3.12,3.25l3.76-4.32ZM1023.5,335.89c-.4-4.17-.45-5.18,1.7-8.48l-4.15-4.52-2.81,9.51c1.48.05,2.98-.07,3.39.56l1.87,2.92ZM261.23,330.55c.86-.77,4.04-.72,4.38.36l.94,2.94c.16.5,2.32-.44,2.15-.94l-.78-2.27c-.34-1.01-.32-3.17-.19-4.67.06-.68-1.6-2.39-2.04-1.88l-2.18,2.56c-.59.69-1.93,2.89-2.67,2.38l-3.5-2.38-3.02,8.22,2.27,2.08c1.04.95.99-3.15,4.64-6.4ZM1032.13,334.8c1.62-2.66.77-7.94-3.48-9.17-1.61,3.04-.06,8.05,3.48,9.17ZM1009.44,358.83c-1.06-4.29-2.48-6.16-5.01-8.25l-1.56,6.78,6.57,1.47ZM1048.21,365.35l.4-5.38-1.92-.75c-.32-.12-.93.87-1.15,1.25l-4.42,7.75c-.59,1.03-.63,3.87-.23,4.45l7.33-7.33ZM247.12,373.23c1.11-1.51,0-4.16-1.17-5.96l-5.02-7.77-2.61,6.27,8.8,7.46ZM228.25,385.47l.03-7.41-4.75-.98c-1.45-.3-2.28,3.38-1.73,4.71l2.58,6.27,3.88-2.59ZM1001.32,389.96c.87.14,1.98-3.55,1.14-2.34-3.5-.86-4.49-1.31-7.35-3.46l-1.91,4.53,8.12,1.27ZM1053.86,407.72l6.63-6.19c-1.61-.53-4.23-2.1-5.46-3.23l-4.7,2.3-1.69-7.23-6.33,9.5c-.36.55-.91,1.99-1.07,2.46-.11.31,1.22.52,1.91.62,1.55-3.02,4.81-5.64,8.39-4.61l.63,7.25c-.51.33,1.32-.51,1.7-.86ZM234.44,407.31l2.13-3.67c.9-1.54,4.82,3.29,5.85,2.37l1.66-1.48-7.56-8.02c-.61,2.74-.96,4.8-1.6,5.95s-4.32.69-5.76.52l.22,7.12,2.27-2.76c.43-.52,2.41.02,2.79-.04ZM287.59,411.94c.12.2-.81-1.45-1.12-2-.88-1.58-3.01,1.12-6.69.83-.97-.08-.41-3.13.07-3.56l.69-2.36c.15-.51-2.04-1.52-2.29-1.06l-1.23,2.28c-.55,1.01-1.75,3.6-2.89,3.54l-4.39-.24c-1.57.09-2.34,5.44-.36,5.46,1.75-2.29,6.06-3.88,7.11-2.26.25.38-.21,2.72-.38,3.14-1.47,3.73,4.37-3.52,11.47-3.77ZM1017.88,416.17l-2.61-6.46-6.33-5.46c-.53-.46-1.73,1.19-1.43,1.78l1.63,3.15-9.95,1.45,8.37,6.49,1.18-5.84c.75-3.73,5.7,4.99,9.15,4.9ZM1037.24,428.47l-.21,10.35,15.32-17.18c-4.66-3.13-9.58,8.08-10.29,4.96l-.7-3.03c-.81.21-4.09,3.13-4.12,4.9ZM246.8,423.92c-1.04,1.73-1.97,3.42-2.3,3.06l-1.67-1.8-2.69-2.89c-.65-.7-3.79-.14-4.22.38l14.91,16.29-.84-11.61c-.08-1.14-3.31-3.97-3.19-3.42ZM258.77,445.42l9.17-11.89c.61-1.82.63-4.42,0-5.72l-2.36,3.28c-.42.59-1.97.51-2.64.29l-3.04-1.02c-.5-.17-.9,2.21-.91,2.93l-.21,12.14ZM1029.2,434.4c.06-1.41-2.8-4.94-3.13-4.31-.9.97-2.33,2.58-2.59,2.07l-1.3-2.6c-.33-.65-1.58-1.53-2.26-1.5-.51.03-1.64.77-1.55,1.27s.6,2.09,1,2.64l9.37,13.18.47-10.76Z"/>
    <path class="st0" d="M686.25,48.29c-1.01-1.74-.79-2.98-1.74-2.98-.17,0-7.18-2.91-13.37.19-.31.16-1.03-2.3-.74-2.7,2.27-3.08,8.21-1.82,14.16.82.51.22-.1-1.69-.39-1.8-3.84-1.41-10.44-4.29-14.38-1.36-.41.3-.13-1.76-.49-2.28,3.99-1.8,10.39.13,15.1,2.24-.44-.2.11-1.69-.47-2.04-1.82-1.1-11.03-4.58-14.55-2.14-.05-.11.04-2.15-.15-2.4,0-.01-.13-1.01-.11-1.01,7.84-1.14,14.82,4.03,14.82,4.03l-.24-1.82c-.39-.11-7.95-5.01-14.28-3.97-.38,0-.08-.2-.56-4.54-.06-.49-1.51-4.22-1.54-4.48.15.24,1.06,2.1,1.3,2.39.12.14.19.23.3.34.27.27.55.46.8.59,8.17,3.61,17.13,7.6,17.25,7.77.26.38-.93.15-.46,7.05l3.99,14.77-3.96-3.57c-3.1-4.72-16.73.63-17.22-1.85l-1.35-4.9c-2.66-1.85-6.9-1.59-10.64-.78l-7.4,1.6.49,58.75c5.47-.22,8.05,1.99,9.52,6.5h163.08c.56,2.4.6,4.28.05,6.28-119.16,0-238.33,0-357.49,0-.39,0-.77,0-1.16,0-.14-.89-.25-1.91-.26-3.05-.01-1.03.05-2.1.18-3.25l171.08.04c1.6-4.34,4.66-6.48,9.68-7.01l.96-89.23c-.91-1.39-2.57-4.41-1.68-5.48,1.29-1.56,4.33-2.45,5.6-1.32,3.58,3.17-1.64,7.98-.32,8.45,5.3,1.89,12.49.18,16.1,3.9.89.92,1.33,1.56,1.33,1.56.25.54.72,1.22.79,1.5-.08.19,1.43,2.47,1.35,2.66,0,0-2.01-1.24-2.01-1.24.03.6.63,8.23.67,8.83-1.55-1.03-5.76-3.38-10.8-2.54-.99.16-1.75.51-2.61.82-.05.44-.41,2.3-.24,2.57,5.51-2.76,10.31.02,13.54,1.45.41.18.17.81.42,2.45.11.73-7.02-5.89-14-1.47-.61.39-.41,2.01-.92,3.07-.05.09.07.18.15.11,4.83-3.7,9.83-1.67,15.57.98l2.19,7.26s3.03-1.78,6.08-1.82c3.11-.04,5.54.48,6.83.97M649.84,42.6c3.44-7.53,2.91-15.24-.36-21.91l.36,21.91Z"/>
    <rect class="st0" x="893.59" y="260.92" width="27.62" height="48.25"/>
    <rect class="st0" x="893.6" y="405.55" width="27.62" height="48.45"/>
    <rect class="st0" x="893.6" y="332" width="27.61" height="48.43"/>
    <rect class="st0" x="366" y="260.94" width="27.49" height="48.19"/>
    <rect class="st0" x="366" y="332" width="27.46" height="48.46"/>
    <rect class="st0" x="366" y="405.57" width="27.46" height="48.37"/>
    <rect class="st0" x="731" y="198" width="118.5" height="2"/>
    <rect class="st0" x="563" y="198" width="168" height="2"/>
    <rect class="st0" x="446" y="198" width="117" height="2"/>
    <path class="st0" d="M370.47,209.18c-11.48.26-22.08.9-32.86.3l-17.72-1,29.12-1.3,77.05-.15-.58.9-25.91.59-29.11.66Z"/>
    <path class="st0" d="M935.49,209.37l-42.5-.05-22.04-.66,11.95-1.48,40.12-.17,61.07.09c-2.2.71-5.75,1.72-8.1,1.75l-40.5.51Z"/>
    <path class="st0" d="M465.58,117c.1.31.9,1.79.96,2.11.27,1.47,1.7,2.97,1.97,4.44.01.08.03.17.09.23.08.08.2.1.31.11,1.01.07,2.47.21,3.48.28.27-1.29-.43-2.69-.81-3.96s-.89-2.49-1.16-3.78c-.64-.26-1.21-.72-1.9-.79-.52-.05-1.39.25-1.6.79-.25.64-1.54-.09-1.33.56Z"/>
    <path class="st0" d="M822.63,117.01c-.1.31-1.18,2.68-1.27,3-.19.65-1.39,2.09-1.66,3.56-.01.08-.03.17-.09.23-.08.08-.2.1-.31.11-1.01.07-2.47.21-3.48.28-.27-1.29.43-2.69.81-3.96.38-1.26.89-2.49,1.16-3.78.64-.26,1.21-.72,1.9-.79.52-.05,1.39.25,1.6.79.25.64,1.54-.09,1.33.56Z"/>
    <path class="st0" d="M320.26,163.21c.1.31.9,1.79.96,2.11.27,1.47,1.7,2.97,1.97,4.44.01.08.03.17.09.23.08.08.2.1.31.11,1.01.07,2.47.21,3.48.28.27-1.29-.43-2.69-.81-3.96s-.89-2.49-1.16-3.78c-.64-.26-1.21-.72-1.9-.79-.52-.05-1.39.25-1.6.79-.25.64-1.54-.09-1.33.56Z"/>
    <path class="st0" d="M967.14,163.21c-.1.31-1.18,2.68-1.27,3-.19.65-1.39,2.09-1.66,3.56-.01.08-.03.17-.09.23-.08.08-.2.1-.31.11-1.01.07-2.47.21-3.48.28-.27-1.29.43-2.69.81-3.96s.89-2.49,1.16-3.78c.64-.26,1.21-.72,1.9-.79.52-.05,1.39.25,1.6.79.25.64,1.54-.09,1.33.56Z"/>
  </g>
</svg>